<svg id="Layer_1" data-name="Layer 1" xmlns="http://www.w3.org/2000/svg" viewBox="0 0 50 8.73"><defs><style>.cls-1{fill:#272727;}</style></defs><title>11</title><rect class="cls-1" width="50" height="0.78"/><rect class="cls-1" y="1.85" width="50" height="0.78"/><path d="M20.76,26h.76V29.3h-.76Z" transform="translate(0 -20.63)"/><path d="M22.23,28.89a.46.46,0,1,1,.46.48A.46.46,0,0,1,22.23,28.89Z" transform="translate(0 -20.63)"/><path d="M24,26.59h-.92V26h2.6v.64h-.92V29.3H24Z" transform="translate(0 -20.63)"/><path d="M25.52,28.89a.46.46,0,1,1,.46.48A.46.46,0,0,1,25.52,28.89Z" transform="translate(0 -20.63)"/><path d="M27,27.65a1.61,1.61,0,0,1,1.58-1.76,1.44,1.44,0,0,1,1,.44l-.4.48a.87.87,0,0,0-.59-.26c-.46,0-.83.4-.83,1.07s.32,1.09.81,1.09a.87.87,0,0,0,.66-.31l.4.47a1.37,1.37,0,0,1-1.08.5A1.55,1.55,0,0,1,27,27.65Z" transform="translate(0 -20.63)"/><path d="M30.06,28.89a.46.46,0,1,1,.46.48A.46.46,0,0,1,30.06,28.89Z" transform="translate(0 -20.63)"/><path d="M31.47,28.85,33,26.59H31.61V26h2.28v.46L32.4,28.67h1.5v.63H31.47Z" transform="translate(0 -20.63)"/></svg>